<svg xmlns="http://www.w3.org/2000/svg" xmlns:xlink="http://www.w3.org/1999/xlink" width="176" height="195.457" viewBox="0 0 176 195.457">
  <defs>
    <clipPath id="clip-path">
      <rect id="Rectangle_6" data-name="Rectangle 6" width="176" height="195.457" transform="translate(157.682 1298.353)" fill="#f1f2f6" stroke="#f1f2f6" stroke-width="2"/>
    </clipPath>
  </defs>
  <g id="Mask_Group_4" data-name="Mask Group 4" transform="translate(-157.682 -1298.353)" clip-path="url(#clip-path)">
    <g id="education_earth_awareness" transform="translate(166.417 1298.353)">
      <path id="Path_241" data-name="Path 241" d="M192.341,6.835H65.744A15.987,15.987,0,0,0,49.777,22.8V99.551a15.983,15.983,0,0,0,15.967,15.955h52.221a.083.083,0,0,1,.067.04l6.247,9.89a5.618,5.618,0,0,0,9.495,0l6.247-9.89a.075.075,0,0,1,.067-.04h52.565a15.67,15.67,0,0,0,15.654-15.651V22.8A15.987,15.987,0,0,0,192.341,6.835Zm10.428,93.021a10.128,10.128,0,0,1-10.116,10.112H140.12a5.594,5.594,0,0,0-4.747,2.639l-6.243,9.89a.091.091,0,0,1-.142,0l-6.274-9.89a5.594,5.594,0,0,0-4.747-2.623H65.744A10.436,10.436,0,0,1,55.316,99.551V22.8A10.44,10.44,0,0,1,65.744,12.374h126.6A10.44,10.44,0,0,1,202.769,22.8Z" transform="translate(-49.777 -6.835)" fill="#f1f2f6" stroke="#f1f2f6" stroke-width="2"/>
      <path id="Path_242" data-name="Path 242" d="M211.13,284.066h-7.1v-1.033a2.769,2.769,0,0,0-1.875-2.623,61.143,61.143,0,0,0-18.934-2.726c-12.679.186-23.112,4.66-30.387,12.984-7.279-8.308-17.712-12.8-30.391-12.984a61.432,61.432,0,0,0-18.946,2.726,2.769,2.769,0,0,0-1.871,2.623v1.033H94.352a2.769,2.769,0,0,0-2.769,2.769V350.9l.024.146a.9.9,0,0,0,.04.206l.036.142c.032.1.063.19.1.281a.222.222,0,0,1,0,.047l.051.095c.032.063.063.127.1.19s.051.079.075.119a2.46,2.46,0,0,0,.186.253l.071.079c.059.063.119.127.182.186l.075.067a2.416,2.416,0,0,0,.277.21l.04.024a2.434,2.434,0,0,0,.281.158l.059.028a2.571,2.571,0,0,0,.344.131h0a3.117,3.117,0,0,0,.332.075h.087a2.757,2.757,0,0,0,.364.028H211.13a2.816,2.816,0,0,0,.368-.028h.087a2.813,2.813,0,0,0,.316-.071h.032a3.452,3.452,0,0,0,.336-.127l.071-.036a2.1,2.1,0,0,0,.261-.146l.055-.032c.095-.063.186-.134.273-.206l.067-.063a2.421,2.421,0,0,0,.2-.2l.047-.055a2.389,2.389,0,0,0,.21-.285l.036-.055a2.938,2.938,0,0,0,.166-.312h0a2.759,2.759,0,0,0,.127-.36.259.259,0,0,0,0-.051,2.745,2.745,0,0,0,.063-.313v-.067a2.926,2.926,0,0,0,.02-.324v-63.8a2.769,2.769,0,0,0-2.738-2.769ZM97.122,289.6h4.494v49.032l-4.494,4.878Zm3.561,58.238,5.143-5.562q1.1-.19,2.164-.336a62.291,62.291,0,0,1,21.316.546,53.909,53.909,0,0,1,9.716,2.959,49.087,49.087,0,0,1,4.993,2.393Zm49.385-2.837a48.918,48.918,0,0,0-4.265-2.516,57.985,57.985,0,0,0-15.726-5.539,64.579,64.579,0,0,0-12.66-1.23,72.532,72.532,0,0,0-10.262.752V285.111c.4-.107.874-.225,1.4-.348a57.93,57.93,0,0,1,13.961-1.535c9.277.166,16.92,2.769,22.819,7.8a31.515,31.515,0,0,1,4.72,5Zm5.539,0V296.022a31.472,31.472,0,0,1,4.747-5c5.9-5.012,13.538-7.623,22.811-7.79a58.156,58.156,0,0,1,13.9,1.519c.546.131,1.036.253,1.46.364v51.363a67.8,67.8,0,0,0-22.91.491,57.934,57.934,0,0,0-15.726,5.539,44.064,44.064,0,0,0-4.3,2.5Zm6.069,2.837a49.933,49.933,0,0,1,4.993-2.393,53.278,53.278,0,0,1,9.685-2.959,63.389,63.389,0,0,1,22.087-.435c.487.071.961.146,1.424.229l5.036,5.558Zm46.7-4.411-4.348-4.779V289.6h4.332Z" transform="translate(-73.096 -157.909)" fill="#f1f2f6" stroke="#f1f2f6" stroke-width="2"/>
      <path id="Path_243" data-name="Path 243" d="M276.631,381.549a2.769,2.769,0,1,0,1.135-5.42c-15.631-3.271-24.655,4.787-25.031,5.143a2.769,2.769,0,1,0,3.743,4.083C256.55,385.279,263.75,378.85,276.631,381.549Z" transform="translate(-162.484 -212.388)" fill="#f1f2f6" stroke="#f1f2f6" stroke-width="2"/>
      <path id="Path_244" data-name="Path 244" d="M253.779,358.007a2.769,2.769,0,0,0,1.871-.728c.071-.067,7.271-6.5,20.153-3.8a2.771,2.771,0,1,0,1.135-5.424c-15.631-3.268-24.651,4.791-25.031,5.143a2.769,2.769,0,0,0,1.871,4.815Z" transform="translate(-162.02 -196.731)" fill="#f1f2f6" stroke="#f1f2f6" stroke-width="2"/>
      <path id="Path_245" data-name="Path 245" d="M145.292,376.127a2.769,2.769,0,1,0,1.136,5.42c12.7-2.659,19.828,3.513,20.176,3.805a2.769,2.769,0,0,0,3.731-4.091C169.943,380.914,160.915,372.851,145.292,376.127Z" transform="translate(-101.826 -212.386)" fill="#f1f2f6" stroke="#f1f2f6" stroke-width="2"/>
      <path id="Path_246" data-name="Path 246" d="M146.1,348.056a2.771,2.771,0,1,0,1.135,5.424c12.7-2.659,19.832,3.509,20.176,3.806a2.77,2.77,0,0,0,3.731-4.095C170.759,352.847,161.735,344.784,146.1,348.056Z" transform="translate(-102.278 -196.729)" fill="#f1f2f6" stroke="#f1f2f6" stroke-width="2"/>
      <path id="Path_247" data-name="Path 247" d="M179.563,31.571c-.7,0-1.4,0-2.061.044a41.915,41.915,0,0,0-14.784,80.31l.229.285.142-.119a41.844,41.844,0,0,0,16.248,3.339h.115a41.583,41.583,0,0,0,30.031-12.66,42.221,42.221,0,0,0,4.284-5.143,41.705,41.705,0,0,0,7.616-23.99h0a41.935,41.935,0,0,0-41.82-42.066ZM147.751,91.424a36.4,36.4,0,0,1-4.712-18.032,37.3,37.3,0,0,1,.277-4.352c1.634,3.655,2.769,6.911,2.571,8.264l-.1.791.4.692a20.833,20.833,0,0,0,11.148,8.624,25.7,25.7,0,0,1-1.048,7l-.289,1.064.625.91a23.71,23.71,0,0,0,6.191,6.116,3.5,3.5,0,0,1-.324,3.193A36.484,36.484,0,0,1,147.751,91.424Zm61.482,2.995a36.329,36.329,0,0,1-42.406,13.206,7.9,7.9,0,0,0-.4-8.308l-.324-.423-.471-.241a16.436,16.436,0,0,1-4.463-4.11c1.693-6.777,1.1-10.626-1.776-11.453a16.616,16.616,0,0,1-8.759-6.136c-.107-4.166-3.505-11.243-5.626-15.271.131-.4.265-.767.4-1.147a36.187,36.187,0,0,1,8.074-12.549,36.642,36.642,0,0,1,13.653-8.739,36.218,36.218,0,0,1,10.6-2.085c.546-.028,1.108-.04,1.677-.04h.107a36.067,36.067,0,0,1,5.365.415,22.213,22.213,0,0,0-1.654,5c-.265.265-.76.673-1.112.965-1.658,1.369-3.723,3.074-3.659,5.539a4.54,4.54,0,0,0,2.1,3.6c3.1,2.291,7.667,4.459,13.957,6.627,1.63.562,4.965,1.713,5.693,2.5a13.505,13.505,0,0,0,1.887,3.849,20.407,20.407,0,0,1,1.29,2.31c-.059.17-.146.4-.218.57-.617,1.582-2.263,5.752,1.812,7.861,2.1,1.056,5.44,2.69,7.022,3.363a46.77,46.77,0,0,1,2.223,4.443,36.254,36.254,0,0,1-4.993,10.254ZM215.7,76.691a2.745,2.745,0,0,0-1.531-1.23c-.6-.206-3.956-1.788-6.983-3.347a.755.755,0,0,1-.115-.071,6.61,6.61,0,0,1,.542-1.836,9.709,9.709,0,0,0,.534-1.634c.328-1.7-.74-3.446-1.978-5.463a16.242,16.242,0,0,1-1.282-2.334c-.514-3.165-4.534-4.557-8.795-6.025-5.748-1.978-10.017-3.988-12.683-5.958h0a15.292,15.292,0,0,1,1.776-1.634c1.436-1.187,2.789-2.3,2.789-4a23.8,23.8,0,0,1,1.685-4.581,36.369,36.369,0,0,1,26.2,35.032q-.04,1.543-.178,3.078Z" transform="translate(-98.715 -20.633)" fill="#f1f2f6" stroke="#f1f2f6" stroke-width="2"/>
      <path id="Path_248" data-name="Path 248" d="M213.2,93.04a12.177,12.177,0,0,0-7.327,2.437,12.217,12.217,0,0,0-19.539,9.78V107.1a12.893,12.893,0,0,0,4.945,10.191l10.927,8.613a5.907,5.907,0,0,0,7.339,0l10.931-8.613a12.9,12.9,0,0,0,4.941-10.191v-1.848A12.232,12.232,0,0,0,213.2,93.04Zm6.678,14.064a7.39,7.39,0,0,1-2.833,5.839l-10.931,8.616a.4.4,0,0,1-.479,0L194.7,112.943a7.39,7.39,0,0,1-2.833-5.839v-1.848a6.678,6.678,0,0,1,11.868-4.217,2.769,2.769,0,0,0,4.292,0,6.678,6.678,0,0,1,11.868,4.217Z" transform="translate(-125.946 -54.919)" fill="#f1f2f6" stroke="#f1f2f6" stroke-width="2"/>
    </g>
  </g>
</svg>
