<svg xmlns="http://www.w3.org/2000/svg" width="611.178" height="512.385" viewBox="0 0 611.178 512.385">
  <g id="Tree" transform="translate(0)">
    <path id="Rectangle_1" data-name="Rectangle 1" d="M24.5,0h0A24.5,24.5,0,0,1,49,24.5V341a0,0,0,0,1,0,0H0a0,0,0,0,1,0,0V24.5A24.5,24.5,0,0,1,24.5,0Z" transform="translate(464.179 171)" fill="#2f3542"/>
    <circle id="Ellipse_1" data-name="Ellipse 1" cx="122.5" cy="122.5" r="122.5" transform="translate(366.179)" fill="#7bed9f"/>
    <path id="Union_1" data-name="Union 1" d="M159.772,86.743a20.29,20.29,0,0,1-3.194-2.363c-8.853.634-18.038.968-27.465.968C57.805,85.347,0,66.242,0,42.674S57.805,0,129.112,0,258.224,19.105,258.224,42.674c0,12.37-15.923,23.51-41.364,31.3l267.4,160.071-20.8,34.488Z" transform="translate(0 243.849)" fill="rgba(47,53,66,0.15)"/>
  </g>
</svg>
