<svg xmlns="http://www.w3.org/2000/svg" xmlns:xlink="http://www.w3.org/1999/xlink" width="176" height="194.893" viewBox="0 0 176 194.893">
  <defs>
    <clipPath id="clip-path">
      <rect id="Rectangle_6" data-name="Rectangle 6" width="176" height="194.893" transform="translate(156.877 1298.027)" fill="rgba(255,255,255,0.18)"/>
    </clipPath>
  </defs>
  <g id="Mask_Group_2" data-name="Mask Group 2" transform="translate(-156.877 -1298.027)" clip-path="url(#clip-path)">
    <g id="world" transform="translate(162.47 1313.802)">
      <path id="Path_224" data-name="Path 224" d="M214.977,26.872A82.785,82.785,0,0,1,288.62,71.825" transform="translate(-132.169 -26.872)" fill="none" stroke="#f1f2f6" stroke-linecap="round" stroke-linejoin="round" stroke-miterlimit="10" stroke-width="8"/>
      <path id="Path_225" data-name="Path 225" d="M391.427,166.841a82.445,82.445,0,0,0-9.166-37.855" transform="translate(-225.811 -84.033)" fill="none" stroke="#f1f2f6" stroke-linecap="round" stroke-linejoin="round" stroke-miterlimit="10" stroke-width="8"/>
      <path id="Path_226" data-name="Path 226" d="M162.2,294.445a82.765,82.765,0,0,0,106.042-79.468" transform="translate(-102.625 -132.169)" fill="none" stroke="#f1f2f6" stroke-linecap="round" stroke-linejoin="round" stroke-miterlimit="10" stroke-width="8"/>
      <path id="Path_227" data-name="Path 227" d="M26.872,109.68A82.808,82.808,0,0,1,109.68,26.872" transform="translate(-26.872 -26.872)" fill="none" stroke="#f1f2f6" stroke-linecap="round" stroke-linejoin="round" stroke-miterlimit="10" stroke-width="8"/>
      <path id="Path_228" data-name="Path 228" d="M29.134,234.146a82.42,82.42,0,0,1-2.262-19.169" transform="translate(-26.872 -132.169)" fill="none" stroke="#f1f2f6" stroke-linecap="round" stroke-linejoin="round" stroke-miterlimit="10" stroke-width="8"/>
      <line id="Line_100" data-name="Line 100" x2="165.616" transform="translate(0 82.808)" fill="none" stroke="#f1f2f6" stroke-linecap="round" stroke-linejoin="round" stroke-miterlimit="10" stroke-width="8"/>
      <line id="Line_101" data-name="Line 101" x1="0.028" transform="translate(156.451 44.953)" fill="none" stroke="#f1f2f6" stroke-linecap="round" stroke-linejoin="round" stroke-miterlimit="10" stroke-width="8"/>
      <line id="Line_102" data-name="Line 102" x2="68.613" y2="0.002" transform="translate(70.979 120.661)" fill="none" stroke="#f1f2f6" stroke-linecap="round" stroke-linejoin="round" stroke-miterlimit="10" stroke-width="8"/>
      <line id="Line_103" data-name="Line 103" y2="127.761" transform="translate(82.808 18.928)" fill="none" stroke="#f1f2f6" stroke-linecap="round" stroke-linejoin="round" stroke-miterlimit="10" stroke-width="8"/>
      <path id="Path_229" data-name="Path 229" d="M115.969,166.841a94.739,94.739,0,0,1,7.888-37.855" transform="translate(-76.747 -84.033)" fill="none" stroke="#f1f2f6" stroke-linecap="round" stroke-linejoin="round" stroke-miterlimit="10" stroke-width="8"/>
      <path id="Path_230" data-name="Path 230" d="M117.167,229.98a94.933,94.933,0,0,1-1.2-15" transform="translate(-76.747 -132.169)" fill="none" stroke="#f1f2f6" stroke-linecap="round" stroke-linejoin="round" stroke-miterlimit="10" stroke-width="8"/>
      <path id="Path_231" data-name="Path 231" d="M303.982,166.841a94.716,94.716,0,0,0-7.9-37.855" transform="translate(-177.567 -84.033)" fill="none" stroke="#f1f2f6" stroke-linecap="round" stroke-linejoin="round" stroke-miterlimit="10" stroke-width="8"/>
      <path id="Path_232" data-name="Path 232" d="M169.585,26.872,153.7,42.762a94.293,94.293,0,0,0-19.808,29.063" transform="translate(-86.777 -26.872)" fill="none" stroke="#f1f2f6" stroke-linecap="round" stroke-linejoin="round" stroke-miterlimit="10" stroke-width="8"/>
      <path id="Path_233" data-name="Path 233" d="M214.977,26.872l15.89,15.89a94.33,94.33,0,0,1,19.815,29.063" transform="translate(-132.169 -26.872)" fill="none" stroke="#f1f2f6" stroke-linecap="round" stroke-linejoin="round" stroke-miterlimit="10" stroke-width="8"/>
      <path id="Path_234" data-name="Path 234" d="M180.93,282.794l14.988,14.988,15.89-15.89a94.686,94.686,0,0,0,27.719-66.921" transform="translate(-113.11 -132.166)" fill="none" stroke="#f1f2f6" stroke-linecap="round" stroke-linejoin="round" stroke-miterlimit="10" stroke-width="8"/>
      <path id="Path_235" data-name="Path 235" d="M77.532,315.217a17.813,17.813,0,0,0-21.847-27.8,1.709,1.709,0,0,1-1.786,0,17.927,17.927,0,0,0-14.449-1.805,17.645,17.645,0,0,0-11.929,12.2,17.89,17.89,0,0,0,4.531,17.406L49.817,334.7a6.733,6.733,0,0,0,9.946,0Z" transform="translate(-26.872 -171.279)" fill="none" stroke="#f1f2f6" stroke-linecap="round" stroke-miterlimit="10" stroke-width="8"/>
      <line id="Line_104" data-name="Line 104" x2="130.425" transform="translate(26.025 44.953)" fill="none" stroke="#f1f2f6" stroke-linecap="round" stroke-linejoin="round" stroke-miterlimit="10" stroke-width="8"/>
    </g>
  </g>
</svg>
